<mxfile host="Electron" agent="Mozilla/5.0 (Windows NT 10.0; Win64; x64) AppleWebKit/537.36 (KHTML, like Gecko) draw.io/28.1.2 Chrome/138.0.7204.243 Electron/37.4.0 Safari/537.36" version="28.1.2">
  <diagram name="Page-1" id="y-DMvJxo8x7DtrrCyqqm">
    <mxGraphModel dx="1123" dy="737" grid="1" gridSize="10" guides="1" tooltips="1" connect="1" arrows="1" fold="1" page="1" pageScale="1" pageWidth="850" pageHeight="1100" math="0" shadow="0">
      <root>
        <mxCell id="0" />
        <mxCell id="1" parent="0" />
        <mxCell id="3r2zbHXK1dT78AS6-KOd-11" value="root endpoint" style="text;html=1;align=center;verticalAlign=middle;whiteSpace=wrap;rounded=0;fontSize=16;" parent="1" vertex="1">
          <mxGeometry x="145" y="30" width="130" height="30" as="geometry" />
        </mxCell>
        <mxCell id="3r2zbHXK1dT78AS6-KOd-12" style="edgeStyle=orthogonalEdgeStyle;rounded=0;orthogonalLoop=1;jettySize=auto;html=1;entryX=0.5;entryY=0;entryDx=0;entryDy=0;" parent="1" source="3r2zbHXK1dT78AS6-KOd-13" target="3r2zbHXK1dT78AS6-KOd-15" edge="1">
          <mxGeometry relative="1" as="geometry" />
        </mxCell>
        <mxCell id="3r2zbHXK1dT78AS6-KOd-13" value="user accesses /" style="rounded=0;whiteSpace=wrap;html=1;" parent="1" vertex="1">
          <mxGeometry x="150" y="90" width="120" height="60" as="geometry" />
        </mxCell>
        <mxCell id="3r2zbHXK1dT78AS6-KOd-14" value="session not found" style="edgeStyle=orthogonalEdgeStyle;rounded=0;orthogonalLoop=1;jettySize=auto;html=1;entryX=0.5;entryY=0;entryDx=0;entryDy=0;" parent="1" source="3r2zbHXK1dT78AS6-KOd-15" target="3r2zbHXK1dT78AS6-KOd-16" edge="1">
          <mxGeometry relative="1" as="geometry">
            <Array as="points">
              <mxPoint x="210" y="275" />
              <mxPoint x="100" y="275" />
            </Array>
          </mxGeometry>
        </mxCell>
        <mxCell id="3r2zbHXK1dT78AS6-KOd-15" value="server checks for if there&#39;s a session" style="rounded=0;whiteSpace=wrap;html=1;" parent="1" vertex="1">
          <mxGeometry x="150" y="180" width="120" height="60" as="geometry" />
        </mxCell>
        <mxCell id="3r2zbHXK1dT78AS6-KOd-16" value="do nothing" style="rounded=0;whiteSpace=wrap;html=1;" parent="1" vertex="1">
          <mxGeometry x="40" y="310" width="120" height="60" as="geometry" />
        </mxCell>
        <mxCell id="3r2zbHXK1dT78AS6-KOd-17" value="reflect login status" style="rounded=0;whiteSpace=wrap;html=1;" parent="1" vertex="1">
          <mxGeometry x="260" y="310" width="120" height="60" as="geometry" />
        </mxCell>
        <mxCell id="3r2zbHXK1dT78AS6-KOd-18" value="session found" style="edgeStyle=orthogonalEdgeStyle;rounded=0;orthogonalLoop=1;jettySize=auto;html=1;entryX=0.557;entryY=-0.026;entryDx=0;entryDy=0;entryPerimeter=0;" parent="1" source="3r2zbHXK1dT78AS6-KOd-15" target="3r2zbHXK1dT78AS6-KOd-17" edge="1">
          <mxGeometry relative="1" as="geometry" />
        </mxCell>
        <mxCell id="Q0n4UiLfFViXOpjFSWW0-7" value="/login" style="text;html=1;align=center;verticalAlign=middle;whiteSpace=wrap;rounded=0;fontSize=16;" vertex="1" parent="1">
          <mxGeometry x="575" y="30" width="130" height="30" as="geometry" />
        </mxCell>
        <mxCell id="Q0n4UiLfFViXOpjFSWW0-8" style="edgeStyle=orthogonalEdgeStyle;rounded=0;orthogonalLoop=1;jettySize=auto;html=1;entryX=0.5;entryY=0;entryDx=0;entryDy=0;" edge="1" source="Q0n4UiLfFViXOpjFSWW0-9" target="Q0n4UiLfFViXOpjFSWW0-11" parent="1">
          <mxGeometry relative="1" as="geometry" />
        </mxCell>
        <mxCell id="Q0n4UiLfFViXOpjFSWW0-9" value="user requests&lt;div&gt;&amp;nbsp;get /login&lt;/div&gt;" style="rounded=0;whiteSpace=wrap;html=1;" vertex="1" parent="1">
          <mxGeometry x="580" y="90" width="120" height="60" as="geometry" />
        </mxCell>
        <mxCell id="Q0n4UiLfFViXOpjFSWW0-10" value="session not found" style="edgeStyle=orthogonalEdgeStyle;rounded=0;orthogonalLoop=1;jettySize=auto;html=1;entryX=0.5;entryY=0;entryDx=0;entryDy=0;" edge="1" source="Q0n4UiLfFViXOpjFSWW0-11" target="Q0n4UiLfFViXOpjFSWW0-12" parent="1">
          <mxGeometry relative="1" as="geometry">
            <Array as="points">
              <mxPoint x="640" y="275" />
              <mxPoint x="530" y="275" />
            </Array>
          </mxGeometry>
        </mxCell>
        <mxCell id="Q0n4UiLfFViXOpjFSWW0-11" value="server checks for if there&#39;s a session" style="rounded=0;whiteSpace=wrap;html=1;" vertex="1" parent="1">
          <mxGeometry x="580" y="180" width="120" height="60" as="geometry" />
        </mxCell>
        <mxCell id="Q0n4UiLfFViXOpjFSWW0-12" value="serve login.html" style="rounded=0;whiteSpace=wrap;html=1;" vertex="1" parent="1">
          <mxGeometry x="470" y="310" width="120" height="60" as="geometry" />
        </mxCell>
        <mxCell id="Q0n4UiLfFViXOpjFSWW0-13" value="redirect to ?redirect=XXX or fallback to /" style="rounded=0;whiteSpace=wrap;html=1;" vertex="1" parent="1">
          <mxGeometry x="690" y="310" width="120" height="60" as="geometry" />
        </mxCell>
        <mxCell id="Q0n4UiLfFViXOpjFSWW0-14" value="session found" style="edgeStyle=orthogonalEdgeStyle;rounded=0;orthogonalLoop=1;jettySize=auto;html=1;entryX=0.557;entryY=-0.026;entryDx=0;entryDy=0;entryPerimeter=0;" edge="1" source="Q0n4UiLfFViXOpjFSWW0-11" target="Q0n4UiLfFViXOpjFSWW0-13" parent="1">
          <mxGeometry relative="1" as="geometry" />
        </mxCell>
      </root>
    </mxGraphModel>
  </diagram>
</mxfile>
